<svg xmlns="http://www.w3.org/2000/svg" width="341.333" height="341.333" viewBox="0 0 256 256"><path d="M123.5 1.1c-1.7.4-4.4 2.3-6.1 4.1C113.9 9 1.6 224.8.7 229.6c-.8 4.3 1 11.3 4 15.2 4.8 6.4 16.5 9.2 23.3 5.7 1.6-.8 23.3-13.6 48.3-28.4l45.4-27 33.9 17.5 53.9 28.2c17.1 9 20.8 10.6 25.6 11 4.3.3 6.5-.1 9.7-1.7 7.6-3.9 12.1-13 10.3-21-1.3-5.8-112.6-219.9-116.4-223.9C137 3.4 134 1.5 132 1c-4-1.1-4.4-1.1-8.5.1zM152 85.2l23.5 46.1c0 1.1-136.9 82.6-137.3 81.7-.3-.9 89-173 89.8-173 .3 0 11.1 20.4 24 45.2zm51.8 99.5c8.4 16.2 15.1 29.7 14.9 29.9-.5.5-74.7-35.8-74.7-36.5 0-.6 42.9-23 44-23 .3 0 7.4 13.3 15.8 29.6z" fill="#1982ff"/></svg>